<mxfile host="65bd71144e">
    <diagram id="CKsTaNWD0P1iZ0fZwkxA" name="Index 与 DiskANN 交互">
        <mxGraphModel dx="965" dy="530" grid="1" gridSize="10" guides="1" tooltips="1" connect="1" arrows="1" fold="1" page="1" pageScale="1" pageWidth="1169" pageHeight="827" math="0" shadow="0">
            <root>
                <mxCell id="0"/>
                <mxCell id="1" parent="0"/>
                <mxCell id="i95NXzqm7Kv1Y7omc5p2-29" value="Actor" style="shape=umlActor;verticalLabelPosition=bottom;verticalAlign=top;html=1;outlineConnect=0;" parent="1" vertex="1">
                    <mxGeometry x="554" y="190" width="30" height="60" as="geometry"/>
                </mxCell>
                <mxCell id="i95NXzqm7Kv1Y7omc5p2-33" value="" style="endArrow=none;html=1;" parent="1" edge="1">
                    <mxGeometry width="50" height="50" relative="1" as="geometry">
                        <mxPoint x="569" y="750" as="sourcePoint"/>
                        <mxPoint x="569" y="250" as="targetPoint"/>
                    </mxGeometry>
                </mxCell>
                <mxCell id="i95NXzqm7Kv1Y7omc5p2-35" value="Actor" style="shape=umlActor;verticalLabelPosition=bottom;verticalAlign=top;html=1;outlineConnect=0;" parent="1" vertex="1">
                    <mxGeometry x="904" y="191" width="30" height="60" as="geometry"/>
                </mxCell>
                <mxCell id="i95NXzqm7Kv1Y7omc5p2-36" value="" style="endArrow=none;html=1;" parent="1" edge="1">
                    <mxGeometry width="50" height="50" relative="1" as="geometry">
                        <mxPoint x="919" y="751" as="sourcePoint"/>
                        <mxPoint x="919" y="251" as="targetPoint"/>
                    </mxGeometry>
                </mxCell>
                <mxCell id="i95NXzqm7Kv1Y7omc5p2-37" value="Index" style="text;html=1;strokeColor=none;fillColor=none;align=center;verticalAlign=middle;whiteSpace=wrap;rounded=0;" parent="1" vertex="1">
                    <mxGeometry x="539" y="160" width="60" height="30" as="geometry"/>
                </mxCell>
                <mxCell id="i95NXzqm7Kv1Y7omc5p2-38" value="DiskANN" style="text;html=1;strokeColor=none;fillColor=none;align=center;verticalAlign=middle;whiteSpace=wrap;rounded=0;" parent="1" vertex="1">
                    <mxGeometry x="889" y="160" width="60" height="30" as="geometry"/>
                </mxCell>
                <mxCell id="i95NXzqm7Kv1Y7omc5p2-39" value="" style="endArrow=classic;html=1;" parent="1" edge="1">
                    <mxGeometry width="50" height="50" relative="1" as="geometry">
                        <mxPoint x="574" y="441" as="sourcePoint"/>
                        <mxPoint x="914" y="441" as="targetPoint"/>
                    </mxGeometry>
                </mxCell>
                <mxCell id="i95NXzqm7Kv1Y7omc5p2-40" value="Status Request" style="text;html=1;strokeColor=none;fillColor=none;align=center;verticalAlign=middle;whiteSpace=wrap;rounded=0;" parent="1" vertex="1">
                    <mxGeometry x="674" y="411" width="110" height="30" as="geometry"/>
                </mxCell>
                <mxCell id="i95NXzqm7Kv1Y7omc5p2-41" value="" style="endArrow=classic;html=1;" parent="1" edge="1">
                    <mxGeometry width="50" height="50" relative="1" as="geometry">
                        <mxPoint x="914" y="481" as="sourcePoint"/>
                        <mxPoint x="574" y="481" as="targetPoint"/>
                    </mxGeometry>
                </mxCell>
                <mxCell id="i95NXzqm7Kv1Y7omc5p2-42" value="Status Response 失败对象不存在" style="text;html=1;strokeColor=none;fillColor=none;align=center;verticalAlign=middle;whiteSpace=wrap;rounded=0;" parent="1" vertex="1">
                    <mxGeometry x="673" y="451" width="131" height="30" as="geometry"/>
                </mxCell>
                <mxCell id="c23L5BnyPqBXcUAaR5G_-1" value="" style="endArrow=classic;html=1;" parent="1" edge="1">
                    <mxGeometry width="50" height="50" relative="1" as="geometry">
                        <mxPoint x="572" y="546" as="sourcePoint"/>
                        <mxPoint x="912" y="546" as="targetPoint"/>
                    </mxGeometry>
                </mxCell>
                <mxCell id="c23L5BnyPqBXcUAaR5G_-2" value="Create Request" style="text;html=1;strokeColor=none;fillColor=none;align=center;verticalAlign=middle;whiteSpace=wrap;rounded=0;" parent="1" vertex="1">
                    <mxGeometry x="672" y="516" width="110" height="30" as="geometry"/>
                </mxCell>
                <mxCell id="c23L5BnyPqBXcUAaR5G_-3" value="" style="endArrow=classic;html=1;" parent="1" edge="1">
                    <mxGeometry width="50" height="50" relative="1" as="geometry">
                        <mxPoint x="912" y="586" as="sourcePoint"/>
                        <mxPoint x="572" y="586" as="targetPoint"/>
                    </mxGeometry>
                </mxCell>
                <mxCell id="c23L5BnyPqBXcUAaR5G_-4" value="&amp;nbsp;Create Response" style="text;html=1;strokeColor=none;fillColor=none;align=center;verticalAlign=middle;whiteSpace=wrap;rounded=0;" parent="1" vertex="1">
                    <mxGeometry x="671" y="556" width="131" height="30" as="geometry"/>
                </mxCell>
                <mxCell id="c23L5BnyPqBXcUAaR5G_-5" value="" style="endArrow=classic;html=1;" parent="1" edge="1">
                    <mxGeometry width="50" height="50" relative="1" as="geometry">
                        <mxPoint x="572" y="644" as="sourcePoint"/>
                        <mxPoint x="912" y="644" as="targetPoint"/>
                    </mxGeometry>
                </mxCell>
                <mxCell id="c23L5BnyPqBXcUAaR5G_-6" value="Status Request" style="text;html=1;strokeColor=none;fillColor=none;align=center;verticalAlign=middle;whiteSpace=wrap;rounded=0;" parent="1" vertex="1">
                    <mxGeometry x="672" y="614" width="110" height="30" as="geometry"/>
                </mxCell>
                <mxCell id="c23L5BnyPqBXcUAaR5G_-7" value="" style="endArrow=classic;html=1;" parent="1" edge="1">
                    <mxGeometry width="50" height="50" relative="1" as="geometry">
                        <mxPoint x="912" y="684" as="sourcePoint"/>
                        <mxPoint x="572" y="684" as="targetPoint"/>
                    </mxGeometry>
                </mxCell>
                <mxCell id="c23L5BnyPqBXcUAaR5G_-8" value="Status Response 成功返回" style="text;html=1;strokeColor=none;fillColor=none;align=center;verticalAlign=middle;whiteSpace=wrap;rounded=0;" parent="1" vertex="1">
                    <mxGeometry x="671" y="654" width="131" height="30" as="geometry"/>
                </mxCell>
                <mxCell id="5" value="" style="html=1;points=[];perimeter=orthogonalPerimeter;" vertex="1" parent="1">
                    <mxGeometry x="914" y="320" width="10" height="40" as="geometry"/>
                </mxCell>
                <mxCell id="10" value="Server 初始化" style="edgeStyle=orthogonalEdgeStyle;html=1;align=left;spacingLeft=2;endArrow=block;rounded=0;entryX=1;entryY=0.75;entryDx=0;entryDy=0;entryPerimeter=0;" edge="1" target="5" parent="1">
                    <mxGeometry relative="1" as="geometry">
                        <mxPoint x="927" y="329" as="sourcePoint"/>
                        <Array as="points">
                            <mxPoint x="957" y="329"/>
                            <mxPoint x="957" y="350"/>
                        </Array>
                        <mxPoint x="932" y="349" as="targetPoint"/>
                    </mxGeometry>
                </mxCell>
                <mxCell id="11" value="Actor" style="shape=umlActor;verticalLabelPosition=bottom;verticalAlign=top;html=1;outlineConnect=0;" vertex="1" parent="1">
                    <mxGeometry x="221" y="192" width="30" height="60" as="geometry"/>
                </mxCell>
                <mxCell id="12" value="" style="endArrow=none;html=1;" edge="1" parent="1">
                    <mxGeometry width="50" height="50" relative="1" as="geometry">
                        <mxPoint x="236" y="752" as="sourcePoint"/>
                        <mxPoint x="236" y="252" as="targetPoint"/>
                    </mxGeometry>
                </mxCell>
                <mxCell id="13" value="Client" style="text;html=1;strokeColor=none;fillColor=none;align=center;verticalAlign=middle;whiteSpace=wrap;rounded=0;" vertex="1" parent="1">
                    <mxGeometry x="206" y="162" width="60" height="30" as="geometry"/>
                </mxCell>
                <mxCell id="16" value="" style="endArrow=classic;html=1;" edge="1" parent="1">
                    <mxGeometry width="50" height="50" relative="1" as="geometry">
                        <mxPoint x="238" y="319" as="sourcePoint"/>
                        <mxPoint x="570" y="319" as="targetPoint"/>
                    </mxGeometry>
                </mxCell>
                <mxCell id="17" value="Create Request" style="text;html=1;strokeColor=none;fillColor=none;align=center;verticalAlign=middle;whiteSpace=wrap;rounded=0;" vertex="1" parent="1">
                    <mxGeometry x="338" y="289" width="110" height="30" as="geometry"/>
                </mxCell>
                <mxCell id="18" value="" style="endArrow=classic;html=1;" edge="1" parent="1">
                    <mxGeometry width="50" height="50" relative="1" as="geometry">
                        <mxPoint x="570" y="360" as="sourcePoint"/>
                        <mxPoint x="238" y="359" as="targetPoint"/>
                    </mxGeometry>
                </mxCell>
                <mxCell id="19" value="Create Response" style="text;html=1;strokeColor=none;fillColor=none;align=center;verticalAlign=middle;whiteSpace=wrap;rounded=0;" vertex="1" parent="1">
                    <mxGeometry x="337" y="329" width="131" height="30" as="geometry"/>
                </mxCell>
                <mxCell id="20" value="" style="html=1;points=[];perimeter=orthogonalPerimeter;" vertex="1" parent="1">
                    <mxGeometry x="564" y="316" width="10" height="40" as="geometry"/>
                </mxCell>
                <mxCell id="21" value="代理对象初始化" style="edgeStyle=orthogonalEdgeStyle;html=1;align=left;spacingLeft=2;endArrow=block;rounded=0;entryX=1;entryY=0.75;entryDx=0;entryDy=0;entryPerimeter=0;" edge="1" parent="1" target="20">
                    <mxGeometry relative="1" as="geometry">
                        <mxPoint x="577" y="325" as="sourcePoint"/>
                        <Array as="points">
                            <mxPoint x="607" y="325"/>
                            <mxPoint x="607" y="346"/>
                        </Array>
                        <mxPoint x="582" y="345" as="targetPoint"/>
                    </mxGeometry>
                </mxCell>
                <mxCell id="22" value="" style="endArrow=classic;html=1;" edge="1" parent="1">
                    <mxGeometry width="50" height="50" relative="1" as="geometry">
                        <mxPoint x="240" y="407" as="sourcePoint"/>
                        <mxPoint x="569" y="407" as="targetPoint"/>
                    </mxGeometry>
                </mxCell>
                <mxCell id="23" value="Status Request" style="text;html=1;strokeColor=none;fillColor=none;align=center;verticalAlign=middle;whiteSpace=wrap;rounded=0;" vertex="1" parent="1">
                    <mxGeometry x="329" y="377" width="110" height="30" as="geometry"/>
                </mxCell>
                <mxCell id="24" value="" style="html=1;points=[];perimeter=orthogonalPerimeter;" vertex="1" parent="1">
                    <mxGeometry x="564" y="390" width="10" height="40" as="geometry"/>
                </mxCell>
                <mxCell id="25" value="建立与DiskANN网络连接" style="edgeStyle=orthogonalEdgeStyle;html=1;align=left;spacingLeft=2;endArrow=block;rounded=0;entryX=1;entryY=0.75;entryDx=0;entryDy=0;entryPerimeter=0;" edge="1" parent="1" target="24">
                    <mxGeometry relative="1" as="geometry">
                        <mxPoint x="577" y="399" as="sourcePoint"/>
                        <Array as="points">
                            <mxPoint x="607" y="399"/>
                            <mxPoint x="607" y="420"/>
                        </Array>
                        <mxPoint x="582" y="419" as="targetPoint"/>
                    </mxGeometry>
                </mxCell>
                <mxCell id="26" value="" style="endArrow=classic;html=1;" edge="1" parent="1">
                    <mxGeometry width="50" height="50" relative="1" as="geometry">
                        <mxPoint x="570" y="694" as="sourcePoint"/>
                        <mxPoint x="237" y="694" as="targetPoint"/>
                    </mxGeometry>
                </mxCell>
                <mxCell id="27" value="Status Response" style="text;html=1;strokeColor=none;fillColor=none;align=center;verticalAlign=middle;whiteSpace=wrap;rounded=0;" vertex="1" parent="1">
                    <mxGeometry x="336" y="664" width="131" height="30" as="geometry"/>
                </mxCell>
                <mxCell id="29" value="" style="html=1;points=[];perimeter=orthogonalPerimeter;" vertex="1" parent="1">
                    <mxGeometry x="914" y="546" width="10" height="40" as="geometry"/>
                </mxCell>
                <mxCell id="30" value="对象创建" style="edgeStyle=orthogonalEdgeStyle;html=1;align=left;spacingLeft=2;endArrow=block;rounded=0;entryX=1;entryY=0.75;entryDx=0;entryDy=0;entryPerimeter=0;" edge="1" parent="1" target="29">
                    <mxGeometry relative="1" as="geometry">
                        <mxPoint x="927" y="555" as="sourcePoint"/>
                        <Array as="points">
                            <mxPoint x="957" y="555"/>
                            <mxPoint x="957" y="576"/>
                        </Array>
                        <mxPoint x="932" y="575" as="targetPoint"/>
                    </mxGeometry>
                </mxCell>
            </root>
        </mxGraphModel>
    </diagram>
    <diagram name="DiskANN 崩溃" id="RYPYGaUV1OxxY9W7Sp0M">
        <mxGraphModel dx="1016" dy="787" grid="1" gridSize="10" guides="1" tooltips="1" connect="1" arrows="1" fold="1" page="1" pageScale="1" pageWidth="1169" pageHeight="827" math="0" shadow="0">
            <root>
                <mxCell id="DNg81MgsFpRAliH9mMZI-0"/>
                <mxCell id="DNg81MgsFpRAliH9mMZI-1" parent="DNg81MgsFpRAliH9mMZI-0"/>
                <mxCell id="DNg81MgsFpRAliH9mMZI-2" value="Actor" style="shape=umlActor;verticalLabelPosition=bottom;verticalAlign=top;html=1;outlineConnect=0;" parent="DNg81MgsFpRAliH9mMZI-1" vertex="1">
                    <mxGeometry x="220" y="190" width="30" height="60" as="geometry"/>
                </mxCell>
                <mxCell id="DNg81MgsFpRAliH9mMZI-3" value="" style="endArrow=none;html=1;" parent="DNg81MgsFpRAliH9mMZI-1" edge="1">
                    <mxGeometry width="50" height="50" relative="1" as="geometry">
                        <mxPoint x="235" y="750" as="sourcePoint"/>
                        <mxPoint x="235" y="250" as="targetPoint"/>
                    </mxGeometry>
                </mxCell>
                <mxCell id="DNg81MgsFpRAliH9mMZI-4" value="Actor" style="shape=umlActor;verticalLabelPosition=bottom;verticalAlign=top;html=1;outlineConnect=0;" parent="DNg81MgsFpRAliH9mMZI-1" vertex="1">
                    <mxGeometry x="570" y="191" width="30" height="60" as="geometry"/>
                </mxCell>
                <mxCell id="DNg81MgsFpRAliH9mMZI-5" value="" style="endArrow=none;html=1;dashed=1;" parent="DNg81MgsFpRAliH9mMZI-1" edge="1">
                    <mxGeometry width="50" height="50" relative="1" as="geometry">
                        <mxPoint x="585" y="751" as="sourcePoint"/>
                        <mxPoint x="585" y="251" as="targetPoint"/>
                    </mxGeometry>
                </mxCell>
                <mxCell id="DNg81MgsFpRAliH9mMZI-6" value="Index" style="text;html=1;strokeColor=none;fillColor=none;align=center;verticalAlign=middle;whiteSpace=wrap;rounded=0;" parent="DNg81MgsFpRAliH9mMZI-1" vertex="1">
                    <mxGeometry x="205" y="160" width="60" height="30" as="geometry"/>
                </mxCell>
                <mxCell id="DNg81MgsFpRAliH9mMZI-7" value="DiskANN" style="text;html=1;strokeColor=none;fillColor=none;align=center;verticalAlign=middle;whiteSpace=wrap;rounded=0;" parent="DNg81MgsFpRAliH9mMZI-1" vertex="1">
                    <mxGeometry x="555" y="160" width="60" height="30" as="geometry"/>
                </mxCell>
                <mxCell id="DNg81MgsFpRAliH9mMZI-8" value="" style="endArrow=classic;html=1;" parent="DNg81MgsFpRAliH9mMZI-1" edge="1">
                    <mxGeometry width="50" height="50" relative="1" as="geometry">
                        <mxPoint x="240" y="320" as="sourcePoint"/>
                        <mxPoint x="580" y="320" as="targetPoint"/>
                    </mxGeometry>
                </mxCell>
                <mxCell id="DNg81MgsFpRAliH9mMZI-9" value="Request" style="text;html=1;strokeColor=none;fillColor=none;align=center;verticalAlign=middle;whiteSpace=wrap;rounded=0;" parent="DNg81MgsFpRAliH9mMZI-1" vertex="1">
                    <mxGeometry x="340" y="290" width="110" height="30" as="geometry"/>
                </mxCell>
                <mxCell id="DNg81MgsFpRAliH9mMZI-10" value="" style="endArrow=classic;html=1;" parent="DNg81MgsFpRAliH9mMZI-1" edge="1">
                    <mxGeometry width="50" height="50" relative="1" as="geometry">
                        <mxPoint x="580" y="360" as="sourcePoint"/>
                        <mxPoint x="240" y="360" as="targetPoint"/>
                    </mxGeometry>
                </mxCell>
                <mxCell id="DNg81MgsFpRAliH9mMZI-11" value="Response failed" style="text;html=1;strokeColor=none;fillColor=none;align=center;verticalAlign=middle;whiteSpace=wrap;rounded=0;" parent="DNg81MgsFpRAliH9mMZI-1" vertex="1">
                    <mxGeometry x="339" y="330" width="131" height="30" as="geometry"/>
                </mxCell>
                <mxCell id="DNg81MgsFpRAliH9mMZI-12" value="" style="endArrow=classic;html=1;" parent="DNg81MgsFpRAliH9mMZI-1" edge="1">
                    <mxGeometry width="50" height="50" relative="1" as="geometry">
                        <mxPoint x="238" y="442" as="sourcePoint"/>
                        <mxPoint x="578" y="442" as="targetPoint"/>
                    </mxGeometry>
                </mxCell>
                <mxCell id="DNg81MgsFpRAliH9mMZI-13" value="Request" style="text;html=1;strokeColor=none;fillColor=none;align=center;verticalAlign=middle;whiteSpace=wrap;rounded=0;" parent="DNg81MgsFpRAliH9mMZI-1" vertex="1">
                    <mxGeometry x="338" y="412" width="110" height="30" as="geometry"/>
                </mxCell>
                <mxCell id="DNg81MgsFpRAliH9mMZI-14" value="" style="endArrow=classic;html=1;" parent="DNg81MgsFpRAliH9mMZI-1" edge="1">
                    <mxGeometry width="50" height="50" relative="1" as="geometry">
                        <mxPoint x="578" y="482" as="sourcePoint"/>
                        <mxPoint x="238" y="482" as="targetPoint"/>
                    </mxGeometry>
                </mxCell>
                <mxCell id="DNg81MgsFpRAliH9mMZI-15" value="Response failed" style="text;html=1;strokeColor=none;fillColor=none;align=center;verticalAlign=middle;whiteSpace=wrap;rounded=0;" parent="DNg81MgsFpRAliH9mMZI-1" vertex="1">
                    <mxGeometry x="337" y="452" width="131" height="30" as="geometry"/>
                </mxCell>
                <mxCell id="DNg81MgsFpRAliH9mMZI-16" value="" style="endArrow=classic;html=1;" parent="DNg81MgsFpRAliH9mMZI-1" edge="1">
                    <mxGeometry width="50" height="50" relative="1" as="geometry">
                        <mxPoint x="238" y="556" as="sourcePoint"/>
                        <mxPoint x="578" y="556" as="targetPoint"/>
                    </mxGeometry>
                </mxCell>
                <mxCell id="DNg81MgsFpRAliH9mMZI-17" value="Request" style="text;html=1;strokeColor=none;fillColor=none;align=center;verticalAlign=middle;whiteSpace=wrap;rounded=0;" parent="DNg81MgsFpRAliH9mMZI-1" vertex="1">
                    <mxGeometry x="338" y="526" width="110" height="30" as="geometry"/>
                </mxCell>
                <mxCell id="DNg81MgsFpRAliH9mMZI-18" value="" style="endArrow=classic;html=1;" parent="DNg81MgsFpRAliH9mMZI-1" edge="1">
                    <mxGeometry width="50" height="50" relative="1" as="geometry">
                        <mxPoint x="578" y="596" as="sourcePoint"/>
                        <mxPoint x="238" y="596" as="targetPoint"/>
                    </mxGeometry>
                </mxCell>
                <mxCell id="DNg81MgsFpRAliH9mMZI-19" value="Response failed" style="text;html=1;strokeColor=none;fillColor=none;align=center;verticalAlign=middle;whiteSpace=wrap;rounded=0;" parent="DNg81MgsFpRAliH9mMZI-1" vertex="1">
                    <mxGeometry x="337" y="566" width="131" height="30" as="geometry"/>
                </mxCell>
            </root>
        </mxGraphModel>
    </diagram>
    <diagram name="Index 与 DiskANN 交互 多个" id="890vanNXvDQpQVHvsPO6">
        <mxGraphModel dx="1016" dy="787" grid="1" gridSize="10" guides="1" tooltips="1" connect="1" arrows="1" fold="1" page="1" pageScale="1" pageWidth="1169" pageHeight="827" math="0" shadow="0">
            <root>
                <mxCell id="_GKx4WZQEgGPNWmIFQ_N-0"/>
                <mxCell id="_GKx4WZQEgGPNWmIFQ_N-1" parent="_GKx4WZQEgGPNWmIFQ_N-0"/>
                <mxCell id="_GKx4WZQEgGPNWmIFQ_N-2" value="Actor" style="shape=umlActor;verticalLabelPosition=bottom;verticalAlign=top;html=1;outlineConnect=0;" parent="_GKx4WZQEgGPNWmIFQ_N-1" vertex="1">
                    <mxGeometry x="220" y="190" width="30" height="60" as="geometry"/>
                </mxCell>
                <mxCell id="_GKx4WZQEgGPNWmIFQ_N-3" value="" style="endArrow=none;html=1;" parent="_GKx4WZQEgGPNWmIFQ_N-1" edge="1">
                    <mxGeometry width="50" height="50" relative="1" as="geometry">
                        <mxPoint x="235" y="750" as="sourcePoint"/>
                        <mxPoint x="235" y="250" as="targetPoint"/>
                    </mxGeometry>
                </mxCell>
                <mxCell id="_GKx4WZQEgGPNWmIFQ_N-4" value="Actor" style="shape=umlActor;verticalLabelPosition=bottom;verticalAlign=top;html=1;outlineConnect=0;" parent="_GKx4WZQEgGPNWmIFQ_N-1" vertex="1">
                    <mxGeometry x="570" y="191" width="30" height="60" as="geometry"/>
                </mxCell>
                <mxCell id="_GKx4WZQEgGPNWmIFQ_N-5" value="" style="endArrow=none;html=1;" parent="_GKx4WZQEgGPNWmIFQ_N-1" edge="1">
                    <mxGeometry width="50" height="50" relative="1" as="geometry">
                        <mxPoint x="585" y="751" as="sourcePoint"/>
                        <mxPoint x="585" y="251" as="targetPoint"/>
                    </mxGeometry>
                </mxCell>
                <mxCell id="_GKx4WZQEgGPNWmIFQ_N-6" value="Index1" style="text;html=1;strokeColor=none;fillColor=none;align=center;verticalAlign=middle;whiteSpace=wrap;rounded=0;" parent="_GKx4WZQEgGPNWmIFQ_N-1" vertex="1">
                    <mxGeometry x="205" y="160" width="60" height="30" as="geometry"/>
                </mxCell>
                <mxCell id="_GKx4WZQEgGPNWmIFQ_N-7" value="DiskANN" style="text;html=1;strokeColor=none;fillColor=none;align=center;verticalAlign=middle;whiteSpace=wrap;rounded=0;" parent="_GKx4WZQEgGPNWmIFQ_N-1" vertex="1">
                    <mxGeometry x="555" y="160" width="60" height="30" as="geometry"/>
                </mxCell>
                <mxCell id="_GKx4WZQEgGPNWmIFQ_N-8" value="" style="endArrow=classic;html=1;" parent="_GKx4WZQEgGPNWmIFQ_N-1" edge="1">
                    <mxGeometry width="50" height="50" relative="1" as="geometry">
                        <mxPoint x="240" y="320" as="sourcePoint"/>
                        <mxPoint x="580" y="320" as="targetPoint"/>
                    </mxGeometry>
                </mxCell>
                <mxCell id="_GKx4WZQEgGPNWmIFQ_N-9" value="PushData Request" style="text;html=1;strokeColor=none;fillColor=none;align=center;verticalAlign=middle;whiteSpace=wrap;rounded=0;" parent="_GKx4WZQEgGPNWmIFQ_N-1" vertex="1">
                    <mxGeometry x="340" y="290" width="110" height="30" as="geometry"/>
                </mxCell>
                <mxCell id="_GKx4WZQEgGPNWmIFQ_N-10" value="" style="endArrow=classic;html=1;" parent="_GKx4WZQEgGPNWmIFQ_N-1" edge="1">
                    <mxGeometry width="50" height="50" relative="1" as="geometry">
                        <mxPoint x="580" y="360" as="sourcePoint"/>
                        <mxPoint x="240" y="360" as="targetPoint"/>
                    </mxGeometry>
                </mxCell>
                <mxCell id="_GKx4WZQEgGPNWmIFQ_N-11" value="PushData Response" style="text;html=1;strokeColor=none;fillColor=none;align=center;verticalAlign=middle;whiteSpace=wrap;rounded=0;" parent="_GKx4WZQEgGPNWmIFQ_N-1" vertex="1">
                    <mxGeometry x="339" y="330" width="131" height="30" as="geometry"/>
                </mxCell>
                <mxCell id="_GKx4WZQEgGPNWmIFQ_N-12" value="" style="endArrow=classic;html=1;" parent="_GKx4WZQEgGPNWmIFQ_N-1" edge="1">
                    <mxGeometry width="50" height="50" relative="1" as="geometry">
                        <mxPoint x="237" y="481.9999999999999" as="sourcePoint"/>
                        <mxPoint x="576.9999999999998" y="481.9999999999999" as="targetPoint"/>
                    </mxGeometry>
                </mxCell>
                <mxCell id="_GKx4WZQEgGPNWmIFQ_N-13" value="PushData Request" style="text;html=1;strokeColor=none;fillColor=none;align=center;verticalAlign=middle;whiteSpace=wrap;rounded=0;" parent="_GKx4WZQEgGPNWmIFQ_N-1" vertex="1">
                    <mxGeometry x="337" y="452" width="110" height="30" as="geometry"/>
                </mxCell>
                <mxCell id="_GKx4WZQEgGPNWmIFQ_N-14" value="" style="endArrow=classic;html=1;" parent="_GKx4WZQEgGPNWmIFQ_N-1" edge="1">
                    <mxGeometry width="50" height="50" relative="1" as="geometry">
                        <mxPoint x="576.9999999999998" y="521.9999999999999" as="sourcePoint"/>
                        <mxPoint x="237" y="521.9999999999999" as="targetPoint"/>
                    </mxGeometry>
                </mxCell>
                <mxCell id="_GKx4WZQEgGPNWmIFQ_N-15" value="PushData Response" style="text;html=1;strokeColor=none;fillColor=none;align=center;verticalAlign=middle;whiteSpace=wrap;rounded=0;" parent="_GKx4WZQEgGPNWmIFQ_N-1" vertex="1">
                    <mxGeometry x="336" y="492" width="131" height="30" as="geometry"/>
                </mxCell>
                <mxCell id="_GKx4WZQEgGPNWmIFQ_N-16" value="&lt;font style=&quot;font-size: 22px;&quot;&gt;.&lt;br&gt;.&lt;br&gt;.&lt;/font&gt;" style="text;html=1;strokeColor=none;fillColor=none;align=center;verticalAlign=middle;whiteSpace=wrap;rounded=0;" parent="_GKx4WZQEgGPNWmIFQ_N-1" vertex="1">
                    <mxGeometry x="365" y="390" width="60" height="40" as="geometry"/>
                </mxCell>
                <mxCell id="V0m47npN4N563cn-UdCl-0" value="Actor" style="shape=umlActor;verticalLabelPosition=bottom;verticalAlign=top;html=1;outlineConnect=0;" parent="_GKx4WZQEgGPNWmIFQ_N-1" vertex="1">
                    <mxGeometry x="898" y="190" width="30" height="60" as="geometry"/>
                </mxCell>
                <mxCell id="V0m47npN4N563cn-UdCl-1" value="" style="endArrow=none;html=1;" parent="_GKx4WZQEgGPNWmIFQ_N-1" edge="1">
                    <mxGeometry width="50" height="50" relative="1" as="geometry">
                        <mxPoint x="913" y="750" as="sourcePoint"/>
                        <mxPoint x="913" y="250" as="targetPoint"/>
                    </mxGeometry>
                </mxCell>
                <mxCell id="V0m47npN4N563cn-UdCl-2" value="Index2" style="text;html=1;strokeColor=none;fillColor=none;align=center;verticalAlign=middle;whiteSpace=wrap;rounded=0;" parent="_GKx4WZQEgGPNWmIFQ_N-1" vertex="1">
                    <mxGeometry x="883" y="160" width="60" height="30" as="geometry"/>
                </mxCell>
                <mxCell id="V0m47npN4N563cn-UdCl-3" value="" style="endArrow=classic;html=1;" parent="_GKx4WZQEgGPNWmIFQ_N-1" edge="1">
                    <mxGeometry width="50" height="50" relative="1" as="geometry">
                        <mxPoint x="587" y="370" as="sourcePoint"/>
                        <mxPoint x="912" y="372" as="targetPoint"/>
                    </mxGeometry>
                </mxCell>
                <mxCell id="V0m47npN4N563cn-UdCl-4" value="PushData Request" style="text;html=1;strokeColor=none;fillColor=none;align=center;verticalAlign=middle;whiteSpace=wrap;rounded=0;" parent="_GKx4WZQEgGPNWmIFQ_N-1" vertex="1">
                    <mxGeometry x="675" y="342" width="110" height="30" as="geometry"/>
                </mxCell>
                <mxCell id="V0m47npN4N563cn-UdCl-5" value="" style="endArrow=classic;html=1;" parent="_GKx4WZQEgGPNWmIFQ_N-1" edge="1">
                    <mxGeometry width="50" height="50" relative="1" as="geometry">
                        <mxPoint x="910" y="412" as="sourcePoint"/>
                        <mxPoint x="585" y="412" as="targetPoint"/>
                    </mxGeometry>
                </mxCell>
                <mxCell id="V0m47npN4N563cn-UdCl-6" value="PushData Response 失败 TSO 不匹配" style="text;html=1;strokeColor=none;fillColor=none;align=center;verticalAlign=middle;whiteSpace=wrap;rounded=0;" parent="_GKx4WZQEgGPNWmIFQ_N-1" vertex="1">
                    <mxGeometry x="674" y="382" width="156" height="30" as="geometry"/>
                </mxCell>
            </root>
        </mxGraphModel>
    </diagram>
</mxfile>